<svg xmlns="http://www.w3.org/2000/svg" viewBox="0 0 64 64">
  <defs>
    <linearGradient id="g" x1="0" y1="0" x2="1" y2="1">
      <stop offset="0" stop-color="#2ee06f"/>
      <stop offset="1" stop-color="#075E54"/>
    </linearGradient>
  </defs>
  <rect width="64" height="64" rx="16" fill="url(#g)"/>
  <path fill="#fff" d="M32 14c-9.94 0-18 8.06-18 18 0 3.17.83 6.14 2.28 8.72L14 50l9.55-2.5A17.9 17.9 0 0 0 32 50c9.94 0 18-8.06 18-18s-8.06-18-18-18zm0 32.4c-2.6 0-5.05-.7-7.16-1.92l-.51-.3-5.31 1.39 1.42-5.17-.33-.53A14.3 14.3 0 0 1 17.7 32c0-7.9 6.4-14.3 14.3-14.3S46.3 24.1 46.3 32 39.9 46.4 32 46.4zm8.06-10.7c-.44-.22-2.6-1.28-3-1.43-.4-.15-.7-.22-1 .22-.29.44-1.14 1.43-1.4 1.72-.26.3-.51.33-.95.11-.44-.22-1.86-.68-3.54-2.18-1.31-1.17-2.19-2.61-2.45-3.05-.26-.44-.03-.68.19-.9.2-.2.44-.51.66-.77.22-.26.29-.44.44-.73.15-.3.07-.55-.04-.77-.11-.22-1-2.4-1.36-3.29-.36-.86-.72-.74-1-.76l-.85-.01c-.3 0-.77.11-1.17.55-.4.44-1.54 1.5-1.54 3.68 0 2.17 1.58 4.27 1.8 4.56.22.3 3.1 4.74 7.52 6.65 1.05.45 1.87.72 2.51.92 1.05.34 2.01.29 2.77.18.85-.13 2.6-1.06 2.96-2.09.37-1.02.37-1.9.26-2.08-.11-.18-.4-.3-.84-.51z"/>
</svg>
